<svg id="Layer_1" data-name="Layer 1" xmlns="http://www.w3.org/2000/svg" viewBox="0 0 464.9 33.32"><title>Relevant_to_My_Interests</title><path d="M7.22,35.71h6.4c4.45,0,7.37,1.63,7.37,5.91,0,4.09-2.92,6.2-7.37,6.2H8.8V58.11H7.22Zm6,10.79c4,0,6.16-1.58,6.16-4.88S17.17,37,13.21,37H8.8V46.5Zm1.55.41,6.66,11.2H19.6L13.26,47.36Z" transform="translate(-6.72 -33.15)" fill="#fff" stroke="#afafaf"/><path d="M26.24,50a8.2,8.2,0,0,1,8.19-8.59c4.46,0,7.3,2.88,7.3,7.56a7.51,7.51,0,0,1-.09,1.25H27V48.9H41l-.64.61c0-4.63-2.41-6.84-5.91-6.84s-6.65,2.66-6.65,7.24a6.86,6.86,0,0,0,7.15,7.3,9.31,9.31,0,0,0,5.48-1.76l.63,1.14a10.6,10.6,0,0,1-6.2,1.92C30.14,58.51,26.24,55.32,26.24,50Z" transform="translate(-6.72 -33.15)" fill="#fff" stroke="#afafaf"/><path d="M53.24,53.18V35H47V33.65h7.71V53.39c0,2.58,1.24,3.79,3.56,3.79a7.64,7.64,0,0,0,3.36-.84l.5,1.16a8.51,8.51,0,0,1-4.08,1C55,58.51,53.24,56.9,53.24,53.18Z" transform="translate(-6.72 -33.15)" fill="#fff" stroke="#afafaf"/><path d="M67,50a8.19,8.19,0,0,1,8.19-8.59c4.46,0,7.3,2.88,7.3,7.56a7.51,7.51,0,0,1-.09,1.25H67.8V48.9h14l-.64.61c0-4.63-2.41-6.84-5.91-6.84s-6.65,2.66-6.65,7.24a6.86,6.86,0,0,0,7.15,7.3,9.31,9.31,0,0,0,5.48-1.76l.63,1.14a10.6,10.6,0,0,1-6.2,1.92C70.94,58.51,67,55.32,67,50Z" transform="translate(-6.72 -33.15)" fill="#fff" stroke="#afafaf"/><path d="M86.93,41.78h1.58L93,52c.72,1.64,1.4,3.22,2,4.7h.14c.62-1.48,1.24-3.06,2-4.7l4.5-10.22h1.48L95.87,58.11h-1.6Z" transform="translate(-6.72 -33.15)" fill="#fff" stroke="#afafaf"/><path d="M108.35,54.05c0-3.66,3.66-5.39,12.52-6.17,0-2.69-1.12-5.18-4.86-5.18a11.31,11.31,0,0,0-6.17,2.22l-.7-1.12a13.19,13.19,0,0,1,7-2.43c4.37,0,6.19,2.81,6.19,6.31V58.11H121.1l-.17-2.45h-.07A11.7,11.7,0,0,1,114,58.51C111.12,58.51,108.35,57.1,108.35,54.05Zm12.52.21V49c-8.31.74-11,2.3-11,4.92,0,2.35,2.19,3.24,4.39,3.24S118.57,56.19,120.87,54.26Z" transform="translate(-6.72 -33.15)" fill="#fff" stroke="#afafaf"/><path d="M129.21,41.78h1.28l.16,3.14h.14c1.88-2,3.81-3.55,6.44-3.55,4,0,5.86,2.14,5.86,6.57V58.11h-1.51v-10c0-3.65-1.36-5.41-4.59-5.41-2.32,0-3.92,1.21-6.27,3.68v11.7h-1.51Z" transform="translate(-6.72 -33.15)" fill="#fff" stroke="#afafaf"/><path d="M153.68,52V43.09h-4.94V41.93l5-.15.2-5.4h1.28v5.4h8.68v1.31h-8.68v9c0,3.18.91,5.08,4.55,5.08a11.41,11.41,0,0,0,4.34-.84l.41,1.15a12.51,12.51,0,0,1-5,1C155,58.51,153.68,55.88,153.68,52Z" transform="translate(-6.72 -33.15)" fill="#fff" stroke="#afafaf"/><path d="M190.48,56.76h5.77V37.05h-5.77V35.71h13.1v1.34h-5.77V56.76h5.77v1.35h-13.1Z" transform="translate(-6.72 -33.15)" fill="#fff" stroke="#afafaf"/><path d="M210.81,41.78h1.28l.16,3.14h.14c1.88-2,3.81-3.55,6.44-3.55,4,0,5.86,2.14,5.86,6.57V58.11h-1.51v-10c0-3.65-1.36-5.41-4.59-5.41-2.32,0-3.92,1.21-6.27,3.68v11.7h-1.51Z" transform="translate(-6.72 -33.15)" fill="#fff" stroke="#afafaf"/><path d="M235.28,52V43.09h-4.94V41.93l5-.15.2-5.4h1.28v5.4h8.68v1.31h-8.68v9c0,3.18.91,5.08,4.55,5.08a11.41,11.41,0,0,0,4.34-.84l.41,1.15a12.51,12.51,0,0,1-5,1C236.64,58.51,235.28,55.88,235.28,52Z" transform="translate(-6.72 -33.15)" fill="#fff" stroke="#afafaf"/><path d="M250.64,50a8.19,8.19,0,0,1,8.18-8.59c4.47,0,7.3,2.88,7.3,7.56a8.75,8.75,0,0,1-.08,1.25H251.39V48.9h14l-.63.61c0-4.63-2.41-6.84-5.91-6.84s-6.65,2.66-6.65,7.24a6.86,6.86,0,0,0,7.15,7.3,9.31,9.31,0,0,0,5.48-1.76l.62,1.14a10.57,10.57,0,0,1-6.19,1.92C254.53,58.51,250.64,55.32,250.64,50Z" transform="translate(-6.72 -33.15)" fill="#fff" stroke="#afafaf"/><path d="M274,41.78h1.28l.17,4h.07a9.26,9.26,0,0,1,7.67-4.45,7.18,7.18,0,0,1,3.29.68L286,43.4a7.75,7.75,0,0,0-3.08-.59c-2.73,0-5.2,1.38-7.47,5.1v10.2H274Z" transform="translate(-6.72 -33.15)" fill="#fff" stroke="#afafaf"/><path d="M291.44,50a8.19,8.19,0,0,1,8.18-8.59c4.46,0,7.3,2.88,7.3,7.56a7.51,7.51,0,0,1-.09,1.25H292.19V48.9h14l-.64.61c0-4.63-2.4-6.84-5.9-6.84S293,45.33,293,49.91a6.86,6.86,0,0,0,7.15,7.3,9.31,9.31,0,0,0,5.48-1.76l.62,1.14a10.57,10.57,0,0,1-6.19,1.92C295.33,58.51,291.44,55.32,291.44,50Z" transform="translate(-6.72 -33.15)" fill="#fff" stroke="#afafaf"/><path d="M312,55.93l.8-1.1a11.2,11.2,0,0,0,7.4,2.39c3.33,0,5-1.5,5-3.22,0-1.48-.58-2.66-5.76-3.7-4.14-.84-6.5-2.17-6.5-4.58s2-4.35,6.37-4.35a11.48,11.48,0,0,1,6.26,2l-.81,1.09a9.25,9.25,0,0,0-5.57-1.81c-3.55,0-4.7,1.44-4.7,3,0,1.73,1.68,2.59,5.38,3.35,5.64,1.19,6.89,2.5,6.89,4.93s-2.44,4.6-6.74,4.6A14,14,0,0,1,312,55.93Z" transform="translate(-6.72 -33.15)" fill="#fff" stroke="#afafaf"/><path d="M337.28,52V43.09h-4.94V41.93l5-.15.2-5.4h1.29v5.4h8.68v1.31h-8.68v9c0,3.18.91,5.08,4.55,5.08a11.45,11.45,0,0,0,4.34-.84l.41,1.15a12.52,12.52,0,0,1-5,1C338.64,58.51,337.28,55.88,337.28,52Z" transform="translate(-6.72 -33.15)" fill="#fff" stroke="#afafaf"/><path d="M352.81,55.93l.8-1.1a11.18,11.18,0,0,0,7.4,2.39c3.33,0,5-1.5,5-3.22,0-1.48-.57-2.66-5.75-3.7-4.14-.84-6.51-2.17-6.51-4.58s2-4.35,6.38-4.35a11.48,11.48,0,0,1,6.26,2l-.81,1.09A9.25,9.25,0,0,0,360,42.66c-3.55,0-4.7,1.44-4.7,3,0,1.73,1.68,2.59,5.37,3.35,5.65,1.19,6.9,2.5,6.9,4.93s-2.44,4.6-6.75,4.6A14,14,0,0,1,352.81,55.93Z" transform="translate(-6.72 -33.15)" fill="#fff" stroke="#afafaf"/><path d="M394.71,35.71h5.68c4.61,0,7.33,1.7,7.33,5.44a4.82,4.82,0,0,1-4,4.88v.14c3.32.48,5.34,2.3,5.34,5.41,0,4.31-3.1,6.53-8.27,6.53h-6.12Zm5.06,9.82c4.6,0,6.4-1.47,6.4-4.32s-2-4.16-6.22-4.16h-3.68v8.48Zm.65,11.24c4.55,0,7.13-1.58,7.13-5.18,0-3.22-2.55-4.72-7.13-4.72h-4.15v9.9Z" transform="translate(-6.72 -33.15)" fill="#fff" stroke="#afafaf"/><path d="M420.43,53.18V35h-6.19V33.65h7.7V53.39c0,2.58,1.24,3.79,3.56,3.79a7.71,7.71,0,0,0,3.37-.84l.49,1.16a8.47,8.47,0,0,1-4.07,1C422.2,58.51,420.43,56.9,420.43,53.18Z" transform="translate(-6.72 -33.15)" fill="#fff" stroke="#afafaf"/><path d="M433.91,50c0-5.47,3.64-8.61,7.92-8.61s7.91,3.14,7.91,8.61-3.64,8.53-7.91,8.53S433.91,55.38,433.91,50Zm14.25,0c0-4.3-2.65-7.27-6.33-7.27s-6.34,3-6.34,7.27,2.65,7.2,6.34,7.2S448.16,54.27,448.16,50Z" transform="translate(-6.72 -33.15)" fill="#fff" stroke="#afafaf"/><path d="M454.87,61.23c0-1.27,1-2.75,2.77-3.84v-.14a2.87,2.87,0,0,1-1.7-2.62,4,4,0,0,1,2-3.07v-.14A5.37,5.37,0,0,1,456,47.19,5.88,5.88,0,0,1,462,41.37a5.58,5.58,0,0,1,2.25.41h6.81v1.31h-4.93a5.85,5.85,0,0,1,1.92,4.13,5.76,5.76,0,0,1-6,5.7,6.93,6.93,0,0,1-3.08-.76,2.84,2.84,0,0,0-1.59,2.28c0,1.56,1.48,2.27,3.76,2.27h4.05c4.15,0,5.94,1,5.94,3.68,0,2.82-3.35,5.58-8.63,5.58C457.41,66,454.87,64.08,454.87,61.23Zm14.71-.67c0-1.84-1.41-2.43-4.27-2.43h-3.87a9,9,0,0,1-2.49-.3c-2,1.05-2.63,2.25-2.63,3.43,0,2,2,3.46,6.07,3.46C466.88,64.72,469.58,62.6,469.58,60.56Zm-3-13.37A4.55,4.55,0,1,0,462,51.72,4.43,4.43,0,0,0,466.59,47.19Z" transform="translate(-6.72 -33.15)" fill="#fff" stroke="#afafaf"/></svg>